<?xml version="1.0" encoding="UTF-8"?>
<svg id="Layer_2" xmlns="http://www.w3.org/2000/svg" xmlns:xlink="http://www.w3.org/1999/xlink" viewBox="0 0 1920.28541 1920.28541"><defs><clipPath id="clippath"><circle cx="960.142705" cy="960.142705" r="959.924484" fill="none"/></clipPath><radialGradient id="radial-gradient" cx="-1083.998859" cy="937.622045" fx="-1083.998859" fy="937.622045" r="1991.361836" gradientTransform="translate(2137.555982 -538.072631) rotate(25.451392) scale(1 1.375441)" gradientUnits="userSpaceOnUse"><stop offset=".004722" stop-color="#bd9eff"/><stop offset=".108738" stop-color="#a175ff"/><stop offset=".466334" stop-color="#ff48b6"/><stop offset=".53059" stop-color="#ff48b2"/><stop offset=".584954" stop-color="#ff4aa8"/><stop offset=".635727" stop-color="#ff4d96"/><stop offset=".684316" stop-color="#ff527e"/><stop offset=".730914" stop-color="#ff585e"/><stop offset=".758648" stop-color="#ff5d48"/></radialGradient><radialGradient id="radial-gradient-2" cx="890.153118" cy="-235.217784" fx="890.153118" fy="-235.217784" r="2547.363746" gradientTransform="translate(388.589248 -1013.514459) rotate(73.176043) scale(1 1.083388)" gradientUnits="userSpaceOnUse"><stop offset=".007718" stop-color="#00f497"/><stop offset=".115916" stop-color="#03f3a6"/><stop offset=".324088" stop-color="#0bf2cd"/><stop offset=".367071" stop-color="#0df2d7"/><stop offset=".631723" stop-color="#0df2d7"/><stop offset=".658343" stop-color="#1ae6da"/><stop offset=".708408" stop-color="#3ec7e4"/><stop offset=".775991" stop-color="#7896f4"/><stop offset=".818617" stop-color="#a175ff"/></radialGradient><radialGradient id="radial-gradient-3" cx="558.692361" cy="8486.231456" fx="558.692361" fy="8486.231456" r="1704.997916" gradientTransform="translate(10557.834673 -1872.738746) rotate(77.15604) scale(1.060358 1.186952) skewX(-.92753)" gradientUnits="userSpaceOnUse"><stop offset=".264049" stop-color="#ffe680"/><stop offset=".299812" stop-color="#fae680"/><stop offset=".34189" stop-color="#ebe781"/><stop offset=".387151" stop-color="#d4e883"/><stop offset=".434686" stop-color="#b2ea86"/><stop offset=".484003" stop-color="#88ec8a"/><stop offset=".534803" stop-color="#54ef8f"/><stop offset=".585862" stop-color="#17f294"/><stop offset=".604286" stop-color="#00f497"/></radialGradient></defs><g id="Innhold"><g clip-path="url(#clippath)"><path d="M2393.760512,1484.92363c259.979548-525.292009,92.817942-889.859799-605.379115-1244.234313C1244.649157-35.285562,1057.75386-322.67072,1375.529466-919.771936c84.871476-159.473731,282.410717-252.690472,311.900115-274.365738-48.506799,29.916595-10.472873-152.01941-404.096928-43.024646-584.577517,161.869906-659.460937,471.002491-448.007622,888.952272,191.011201,377.544754-485.578351-221.341808-738.437004-48.903154C-165.444657-218.213668-222.5871-39.06488-298.250244,129.829629c-256.5077,572.57391-553.011775,1280.701846-514.275835,1261.400278,0,0,2307.362806,1909.980756,3206.286591,93.693723Z" fill="url(#radial-gradient)"/><path d="M-244.940308,357.069568C556.20097-78.725498,1241.15453,8.752985,870.303454,265.920657c-314.067443,217.790909-267.368044,600.043451,264.465358,645.644569,227.540989,19.510101,477.860539,8.063672,632.704418,168.906278,58.578763,60.848133,93.431041,136.340882,110.044592,214.783962,34.502464,162.907947,168.611892,467.361608,94.9425,550.973074-171.816683,195.004255-289.310574,579.954376-1311.896795,463.963501-179.121489-20.317561-2035.324519-1338.536389-905.503834-1953.122473Z" fill="url(#radial-gradient-2)"/><path d="M5.774329,701.790157c1.985281,287.133041,19.766944,355.043628,174.432981,427.24369,214.244235,100.011917,479.810322,39.862096,682.164495,172.56331,288.542211,189.222201,283.114185,681.039963-260.376355,876.372177C-90.071799,2426.700486-267.808664,1548.970082-221.687719,1049.57417-200.203781,816.946876,5.240314,624.555116,5.774329,701.790157Z" fill="url(#radial-gradient-3)"/></g></g></svg>