<?xml version="1.0" encoding="UTF-8"?><svg id="Layer_1" xmlns="http://www.w3.org/2000/svg" viewBox="0 0 260 260"><defs><style>.cls-1{fill:#00424d;}.cls-2{fill:#0df2d7;}</style></defs><rect class="cls-1" width="260" height="260" rx="25" ry="25"/><g><path class="cls-2" d="m66.32,48.55c0-7.41,6-13.42,13.44-13.42s13.41,6,13.41,13.42-6.01,13.43-13.41,13.43-13.44-6.02-13.44-13.43Z"/><path class="cls-2" d="m145.81,117.6h-17.67v-21.34h17.67v-23.86h27.14v23.86h42.05v21.34h-42.05v46.56c0,12.88,2.16,22.01,6.5,27.44,4.34,5.42,11.32,8.14,20.94,8.14h14.61v24.88c-11.24,0-12.6.02-26.03.02-12.11,0-22.32-4.5-30.65-13.52-8.33-8.99-12.51-20.35-12.51-34.07v-59.45Z"/><path class="cls-2" d="m66.03,224.87v-105.74h-21.03v-22.86h48.17v128.61h-27.14Z"/></g></svg>